# Blender v2.76 (sub 0) OBJ File: 'playground1.blend'
# www.blender.org
mtllib playground.mtl
o Cube.002_Cube.003
v -10.000000 0.000000 -8.000000
v -10.000000 4.000000 -8.000000
v -10.000000 0.000000 -10.000000
v -10.000000 4.000000 -10.000000
v 10.000000 0.000000 -8.000000
v 10.000000 4.000000 -8.000000
v 10.000000 0.000000 -10.000000
v 10.000000 4.000000 -10.000000
v -10.000000 0.000000 10.000000
v -10.000000 4.000000 10.000000
v -10.000000 0.000000 -8.000000
v -10.000000 4.000000 -8.000000
v -8.000000 0.000000 10.000000
v -8.000000 4.000000 10.000000
v -8.000000 0.000000 -8.000000
v -8.000000 4.000000 -8.000000
v -8.000000 0.000000 10.000000
v -8.000000 4.000000 10.000000
v -8.000000 0.000000 8.000000
v -8.000000 4.000000 8.000000
v 10.000000 0.000000 10.000000
v 10.000000 4.000000 10.000000
v 10.000000 0.000000 8.000000
v 10.000000 4.000000 8.000000
v 8.000000 0.000000 8.000000
v 8.000000 4.000000 8.000000
v 8.000000 0.000000 -8.000000
v 8.000000 4.000000 -8.000000
v 10.000000 0.000000 8.000000
v 10.000000 4.000000 8.000000
v 10.000000 0.000000 -8.000000
v 10.000000 4.000000 -8.000000
vn -1.000000 0.000000 0.000000
vn 0.000000 0.000000 -1.000000
vn 1.000000 0.000000 0.000000
vn 0.000000 0.000000 1.000000
vn 0.000000 -1.000000 0.000000
vn 0.000000 1.000000 0.000000
usemtl None
s off
f 2//1 4//1 3//1 1//1
f 4//2 8//2 7//2 3//2
f 8//3 6//3 5//3 7//3
f 6//4 2//4 1//4 5//4
f 1//5 3//5 7//5 5//5
f 6//6 8//6 4//6 2//6
f 10//1 12//1 11//1 9//1
f 12//2 16//2 15//2 11//2
f 16//3 14//3 13//3 15//3
f 14//4 10//4 9//4 13//4
f 9//5 11//5 15//5 13//5
f 14//6 16//6 12//6 10//6
f 18//1 20//1 19//1 17//1
f 20//2 24//2 23//2 19//2
f 24//3 22//3 21//3 23//3
f 22//4 18//4 17//4 21//4
f 17//5 19//5 23//5 21//5
f 22//6 24//6 20//6 18//6
f 26//1 28//1 27//1 25//1
f 28//2 32//2 31//2 27//2
f 32//3 30//3 29//3 31//3
f 30//4 26//4 25//4 29//4
f 25//5 27//5 31//5 29//5
f 30//6 32//6 28//6 26//6
o Cube.001_Cube.002
v -1.000000 0.000000 -6.000000
v -5.000000 0.000000 -6.000000
v -1.000000 0.000000 -8.000000
v -5.000000 0.000000 -8.000000
v 1.000000 0.000000 -6.000000
v 1.000000 3.000000 -6.000000
v 1.000000 0.000000 -8.000000
v 1.000000 3.000000 -8.000000
vn 0.000000 -1.000000 0.000000
vn 0.000000 0.000000 -1.000000
vn 1.000000 0.000000 0.000000
vn 0.000000 0.000000 1.000000
vn -0.447200 0.894400 0.000000
usemtl Material.001
s off
f 34//7 36//7 35//7 33//7
f 36//8 40//8 39//8 35//8
f 40//9 38//9 37//9 39//9
f 38//10 34//10 33//10 37//10
f 33//7 35//7 39//7 37//7
f 38//11 40//11 36//11 34//11
o Cube_Cube.001
v 1.000000 0.000000 8.000000
v 1.000000 3.000000 8.000000
v 1.000000 0.000000 -8.000000
v 1.000000 3.000000 -8.000000
v 8.000000 0.000000 8.000000
v 8.000000 3.000000 8.000000
v 8.000000 0.000000 -8.000000
v 8.000000 3.000000 -8.000000
vn -1.000000 0.000000 0.000000
vn 0.000000 0.000000 -1.000000
vn 1.000000 0.000000 0.000000
vn 0.000000 0.000000 1.000000
vn 0.000000 -1.000000 0.000000
vn 0.000000 1.000000 0.000000
usemtl Material.001
s off
f 42//12 44//12 43//12 41//12
f 44//13 48//13 47//13 43//13
f 48//14 46//14 45//14 47//14
f 46//15 42//15 41//15 45//15
f 41//16 43//16 47//16 45//16
f 46//17 48//17 44//17 42//17
o Plane
v -8.000000 0.000000 8.000000
v 8.000000 0.000000 8.000000
v -8.000000 0.000000 -8.000000
v 8.000000 0.000000 -8.000000
vn 0.000000 1.000000 0.000000
usemtl Material.001
s off
f 49//18 50//18 52//18 51//18
